<svg width="500" height="500" viewBox="0 0 500 500" fill="none" xmlns="http://www.w3.org/2000/svg">
  <!-- Background circular glow -->
  <circle cx="250" cy="250" r="200" fill="url(#paint0_radial)" />
  
  <!-- Brain network illustration -->
  <g>
    <!-- Brain outline -->
    <path d="M250 150C288.66 150 320 181.34 320 220C320 258.66 288.66 290 250 290C211.34 290 180 258.66 180 220C180 181.34 211.34 150 250 150Z" stroke="#000000" stroke-width="2" />
    
    <!-- Neural network nodes -->
    <circle cx="200" cy="200" r="10" fill="#000000" />
    <circle cx="240" cy="180" r="10" fill="#000000" />
    <circle cx="280" cy="190" r="10" fill="#000000" />
    <circle cx="300" cy="230" r="10" fill="#000000" />
    <circle cx="270" cy="260" r="10" fill="#000000" />
    <circle cx="230" cy="270" r="10" fill="#000000" />
    <circle cx="190" cy="240" r="10" fill="#000000" />
    
    <!-- Neural connections -->
    <line x1="200" y1="200" x2="240" y2="180" stroke="#000000" stroke-width="2" />
    <line x1="240" y1="180" x2="280" y2="190" stroke="#000000" stroke-width="2" />
    <line x1="280" y1="190" x2="300" y2="230" stroke="#000000" stroke-width="2" />
    <line x1="300" y1="230" x2="270" y2="260" stroke="#000000" stroke-width="2" />
    <line x1="270" y1="260" x2="230" y2="270" stroke="#000000" stroke-width="2" />
    <line x1="230" y1="270" x2="190" y2="240" stroke="#000000" stroke-width="2" />
    <line x1="190" y1="240" x2="200" y2="200" stroke="#000000" stroke-width="2" />
    <line x1="200" y1="200" x2="270" y2="260" stroke="#000000" stroke-width="2" />
    <line x1="240" y1="180" x2="230" y2="270" stroke="#000000" stroke-width="2" />
    <line x1="280" y1="190" x2="190" y2="240" stroke="#000000" stroke-width="2" />
  </g>
  
  <!-- Abstract data flow lines -->
  <path d="M250 100C250 100 150 150 100 200C50 250 50 350 100 400C150 450 350 450 400 400C450 350 450 250 400 200C350 150 250 100 250 100Z" stroke="#000000" stroke-opacity="0.3" stroke-width="2" stroke-dasharray="5 5" />
  
  <!-- AI-related icons surrounding the brain -->
  <!-- Code symbol -->
  <text x="130" y="130" font-family="monospace" font-size="20" fill="#000000">&lt;/&gt;</text>
  
  <!-- Data chart symbol -->
  <path d="M350 130L370 110L390 125L410 105" stroke="#000000" stroke-width="2" fill="none" />
  
  <!-- Robot icon -->
  <rect x="130" y="350" width="30" height="40" rx="5" fill="#000000" />
  <circle cx="140" cy="335" r="10" fill="#000000" />
  <circle cx="150" cy="335" r="10" fill="#000000" />
  
  <!-- Circuit pattern -->
  <path d="M370 350C370 350 380 340 390 340C400 340 410 350 410 350" stroke="#000000" stroke-width="2" fill="none" />
  <path d="M370 360C370 360 380 370 390 370C400 370 410 360 410 360" stroke="#000000" stroke-width="2" fill="none" />
  <line x1="370" y1="350" x2="370" y2="360" stroke="#000000" stroke-width="2" />
  <line x1="410" y1="350" x2="410" y2="360" stroke="#000000" stroke-width="2" />
  <circle cx="390" cy="340" r="3" fill="#000000" />
  <circle cx="390" cy="370" r="3" fill="#000000" />
  
  <!-- Gradient definition -->
  <defs>
    <radialGradient id="paint0_radial" cx="0" cy="0" r="1" gradientUnits="userSpaceOnUse" gradientTransform="translate(250 250) rotate(90) scale(200)">
      <stop offset="0" stop-color="#FFFFFF" />
      <stop offset="1" stop-color="#F0F0F0" stop-opacity="0" />
    </radialGradient>
  </defs>
</svg>