<svg width="200" height="40" viewBox="0 0 200 40" fill="none" xmlns="http://www.w3.org/2000/svg">
  <path d="M10.176 29H6.528V12.2H0.768V9.08H15.936V12.2H10.176V29ZM20.6552 29H17.1512V9.08H20.6552V29ZM36.4482 29H24.8082V9.08H36.4482V12.2H28.3122V17.24H35.8082V20.36H28.3122V25.88H36.4482V29ZM49.9395 29H39.8995V9.08H43.4035V25.88H49.9395V29ZM59.0395 29.32C57.5595 29.32 56.1995 29.08 54.9595 28.6C53.7195 28.104 52.6395 27.408 51.7195 26.52C50.7995 25.632 50.0795 24.552 49.5595 23.28C49.0395 22.008 48.7795 20.584 48.7795 19.008C48.7795 17.432 49.0395 16.008 49.5595 14.736C50.0795 13.464 50.7995 12.384 51.7195 11.496C52.6395 10.608 53.7195 9.92 54.9595 9.424C56.1995 8.928 57.5595 8.68 59.0395 8.68C60.5195 8.68 61.8795 8.928 63.1195 9.424C64.3595 9.92 65.4395 10.608 66.3595 11.496C67.2795 12.384 68.0075 13.464 68.5435 14.736C69.0795 16.008 69.3475 17.432 69.3475 19.008C69.3475 20.584 69.0795 22.008 68.5435 23.28C68.0235 24.552 67.2955 25.632 66.3595 26.52C65.4395 27.408 64.3595 28.104 63.1195 28.6C61.8795 29.08 60.5195 29.32 59.0395 29.32ZM59.0395 26.12C60.0395 26.12 60.9595 25.952 61.7995 25.616C62.6395 25.28 63.3635 24.784 63.9715 24.128C64.5795 23.472 65.0555 22.672 65.3995 21.728C65.7435 20.784 65.9155 19.736 65.9155 18.584C65.9155 17.432 65.7435 16.384 65.3995 15.44C65.0555 14.496 64.5795 13.696 63.9715 13.04C63.3635 12.384 62.6395 11.888 61.7995 11.552C60.9595 11.216 60.0395 11.048 59.0395 11.048C58.0395 11.048 57.1195 11.216 56.2795 11.552C55.4395 11.888 54.7155 12.384 54.1075 13.04C53.4995 13.696 53.0235 14.496 52.6795 15.44C52.3355 16.384 52.1635 17.432 52.1635 18.584C52.1635 19.736 52.3355 20.784 52.6795 21.728C53.0235 22.672 53.4995 23.472 54.1075 24.128C54.7155 24.784 55.4395 25.28 56.2795 25.616C57.1195 25.952 58.0395 26.12 59.0395 26.12ZM78.5359 29H74.9839V13.8H70.3999V9.08H83.1199V13.8H78.5359V29ZM97.0151 29H85.3751V9.08H96.8151V13.4H89.6351V16.84H96.2151V21.16H89.6351V24.68H97.0151V29ZM111.222 29H107.718V17.6C107.718 16.784 107.582 16.192 107.31 15.824C107.054 15.44 106.59 15.248 105.918 15.248C105.518 15.248 105.118 15.336 104.718 15.512C104.318 15.688 103.934 15.912 103.566 16.184V29H100.062V9.08H103.262V13.32C103.918 12.664 104.638 12.16 105.422 11.808C106.206 11.456 107.07 11.28 108.014 11.28C109.206 11.28 110.15 11.584 110.846 12.192C111.558 12.784 111.95 13.624 112.022 14.712C112.71 13.624 113.59 12.784 114.662 12.192C115.75 11.584 116.91 11.28 118.142 11.28C119.35 11.28 120.334 11.448 121.094 11.784C121.87 12.12 122.47 12.576 122.894 13.152C123.318 13.728 123.614 14.4 123.782 15.168C123.95 15.92 124.034 16.72 124.034 17.568V29H120.53V17.6C120.53 16.784 120.394 16.192 120.122 15.824C119.866 15.44 119.402 15.248 118.73 15.248C118.33 15.248 117.93 15.336 117.53 15.512C117.13 15.688 116.746 15.912 116.378 16.184V29H112.874V17.6C112.874 16.784 112.738 16.192 112.466 15.824C112.21 15.44 111.746 15.248 111.074 15.248C110.674 15.248 110.274 15.336 109.874 15.512C109.474 15.688 109.09 15.912 108.722 16.184V29H105.218V11.6H107.942L108.418 13.32C109.074 12.664 109.794 12.16 110.578 11.808C111.362 11.456 112.242 11.28 113.202 11.28C114.394 11.28 115.338 11.584 116.034 12.192C116.746 12.784 117.138 13.624 117.21 14.712C117.898 13.624 118.778 12.784 119.85 12.192C120.938 11.584 122.098 11.28 123.33 11.28C124.538 11.28 125.522 11.448 126.282 11.784C127.058 12.12 127.658 12.576 128.082 13.152C128.506 13.728 128.802 14.4 128.97 15.168C129.138 15.92 129.222 16.72 129.222 17.568V29H125.718V17.6C125.718 16.784 125.582 16.192 125.31 15.824C125.054 15.44 124.59 15.248 123.918 15.248C123.518 15.248 123.118 15.336 122.718 15.512C122.318 15.688 121.934 15.912 121.566 16.184V29H118.062V17.6C118.062 16.784 117.926 16.192 117.654 15.824C117.398 15.44 116.934 15.248 116.262 15.248C115.862 15.248 115.462 15.336 115.062 15.512C114.662 15.688 114.278 15.912 113.91 16.184V29H111.222ZM141.36 29H137.856V11.6H140.74L141.112 14.016C141.752 13.12 142.504 12.424 143.368 11.928C144.248 11.432 145.248 11.184 146.368 11.184V15.104C145.104 15.104 144.048 15.368 143.2 15.896C142.368 16.408 141.776 17.064 141.424 17.864V29H141.36ZM150.489 9.96C149.745 9.96 149.121 9.736 148.617 9.288C148.129 8.824 147.885 8.248 147.885 7.56C147.885 6.856 148.129 6.28 148.617 5.832C149.121 5.368 149.745 5.136 150.489 5.136C151.233 5.136 151.849 5.368 152.337 5.832C152.841 6.28 153.093 6.856 153.093 7.56C153.093 8.248 152.841 8.824 152.337 9.288C151.849 9.736 151.233 9.96 150.489 9.96ZM152.241 29H148.737V11.6H152.241V29ZM165.669 29.32C164.093 29.32 162.717 29.064 161.541 28.552C160.365 28.024 159.389 27.304 158.613 26.392C157.837 25.48 157.261 24.416 156.885 23.2C156.509 21.968 156.317 20.664 156.309 19.288V11.6H159.813V19.112C159.813 20.072 159.909 20.928 160.101 21.68C160.293 22.432 160.589 23.072 160.989 23.6C161.389 24.112 161.901 24.504 162.525 24.776C163.149 25.048 163.901 25.184 164.781 25.184C166.469 25.184 167.709 24.68 168.501 23.672C169.293 22.648 169.693 21.24 169.701 19.448V11.6H173.205V29H170.125L169.725 26.968C169.045 27.768 168.221 28.36 167.253 28.744C166.301 29.128 165.077 29.32 163.581 29.32H165.669ZM179.81 29H176.306V11.6H179.19L179.562 14.016C180.202 13.12 180.954 12.424 181.818 11.928C182.698 11.432 183.698 11.184 184.818 11.184V15.104C183.554 15.104 182.498 15.368 181.65 15.896C180.818 16.408 180.226 17.064 179.874 17.864V29H179.81ZM194.939 29.32C193.363 29.32 191.987 29.064 190.811 28.552C189.635 28.024 188.659 27.304 187.883 26.392C187.107 25.48 186.531 24.416 186.155 23.2C185.779 21.968 185.587 20.664 185.579 19.288V11.6H189.083V19.112C189.083 20.072 189.179 20.928 189.371 21.68C189.563 22.432 189.859 23.072 190.259 23.6C190.659 24.112 191.171 24.504 191.795 24.776C192.419 25.048 193.171 25.184 194.051 25.184C195.739 25.184 196.979 24.68 197.771 23.672C198.563 22.648 198.963 21.24 198.971 19.448V11.6H202.475V29H199.395L198.995 26.968C198.315 27.768 197.491 28.36 196.523 28.744C195.571 29.128 194.347 29.32 192.851 29.32H194.939Z" fill="white"/>
</svg>